<svg xmlns="http://www.w3.org/2000/svg" viewBox="0 0 1008.3 996.8" width="1008.3" height="996.8"><path fill="#3d1f56" d="M868 282v444L527 927v-33l313-185V298L527 115V80z"></path><path fill="#9f65ad" d="m634 419-107 63V355l21 12z"></path><path fill="#3d1f56" d="M688 268v119l-18 11V282l-86-50-36 21v114l-21-12V242l57-35z"></path><path fill="#824b9a" d="M634 304v115l-86-52V253z"></path><path fill="#9f65ad" d="M688 387V268l-104-61-57 35V115l313 183z"></path><path fill="#6f3a86" d="M840 298v411L527 894V482l107-63V304l-86-51 36-21 86 50v116l18-11z"></path><path fill="#231f20" d="m513 71-101 62-105-62-63 37v124l-87 50v306l-40 23v185l166 98 79-46 151 88 14-9V80zm-15 823-110-65 30-17v-61l-134 76-143-84V625l45-28V298l82-50V121l39-23 91 55-36 23v126l58-34V161l78-46z"></path><path fill="#808b8d" d="m307 98 91 55-36 23-94-55"></path><path fill="#a0a9ac" d="m268 186 94 54v62l-94-54z"></path><path fill="#bfc7c8" d="m268 121 94 55v64l-94-54z"></path><path fill="#caced0" d="m362 302-94-54-82 50 312 184V115l-78 46v107z"></path><path fill="#8b9597" d="M396 552v64l-108-64v-64zv64"></path><path fill="#0f2a2f" d="m236 393 52 31v64l-52-31zm214 190-54-31v-65l54 32z"></path><path fill="#e2e7e4" d="M498 610v65l-48-27v-65zM186 430l50 27v65l-50-29z"></path><path fill="#069797" d="m288 488-52-31v65l52 30zm108 64 54 31v65l-54-32z"></path><path fill="#133d43" d="m186 651 50 31v58l-50-31z"></path><path fill="#226063" d="m236 682 39-23-51-31-38 23"></path><path fill="#a0a9ab" d="m224 628 94-58 54 32-97 57z"></path><path fill="#8b9597" d="M498 675v181l-47-27v-58l-33-20V629z"></path><path fill="#b0b7b9" d="m418 812-30 17 110 65v-38l-47-27v-58l-33-20z"></path><path fill="#77858a" d="m420 630-136 79v118l134-76z"></path><path fill="#a0a9ab" d="m141 743 143 84V709l-48-27v58l-50-31v-58l-45-26z"></path><path fill="#8e999a" d="m275 545-89 52V493z"></path><path fill="#cbcfd1" d="m141 625 134-80 43 25-132 81zm231-23 48 28-136 79-48-27z"></path><path fill="#a7b2b6" d="M498 482v128l-48-27v-63l-54-33v65l-108-64v-64l-52-31v64l-50-27V298z"></path></svg>